<?xml version="1.0" encoding="UTF-8"?>
<svg width="1200pt" height="1200pt" version="1.1" viewBox="0 0 1200 1200" xmlns="http://www.w3.org/2000/svg">
 <g fill="#4579aa">
  <path d="m1081.8 221.28h-963.58c-21.121 0-33.816 12.695-33.816 33.816v617.02c0 21.133 21.121 33.805 42.277 33.805h58.871v-50.703h-33.539c-10.559 0-16.883-6.3594-16.883-16.922v-549.38c0-10.57 6.3125-16.922 16.883-16.922h895.97c10.547 0 16.895 6.3359 16.895 16.922v549.39c0 10.559-6.3242 16.922-16.895 16.922h-433.24v50.703h467.05c21.145 0 33.77-12.684 33.77-33.805l-0.003906-617.03c0.011719-21.121-12.621-33.816-33.766-33.816z"/>
  <path d="m400.18 416.16c53.941 0 97.656 43.738 97.656 97.68 0 53.965-43.727 97.68-97.656 97.68-53.977 0-97.691-43.715-97.691-97.68 0-53.953 43.715-97.68 97.691-97.68z"/>
  <path d="m499.07 638.54h-197.84c-42.18 0-76.367 34.129-76.367 76.176v277.05c0 13.176 11.293 23.941 25.105 23.941h300.39c13.801 0 25.105-10.766 25.105-23.941v-277.05c0-42.047-34.199-76.176-76.395-76.176z"/>
  <path d="m659.81 394.18c0-10.273 9.7305-18.695 21.637-18.695h280.57c11.879 0 21.637 8.4258 21.637 18.695 0 10.285-9.7422 18.707-21.637 18.707h-280.57c-11.906-0.011718-21.637-8.4219-21.637-18.707z"/>
  <path d="m659.81 585.6c0-10.297 9.7305-18.719 21.637-18.719h280.57c11.879 0 21.637 8.4102 21.637 18.719 0 10.273-9.7422 18.695-21.637 18.695h-280.57c-11.906-0.011719-21.637-8.4258-21.637-18.695z"/>
  <path d="m659.81 489.88c0-10.285 9.7305-18.695 21.637-18.695h280.57c11.879 0 21.637 8.4102 21.637 18.695 0 10.297-9.7422 18.707-21.637 18.707l-280.57 0.003907c-11.906 0-21.637-8.4141-21.637-18.711z"/>
  <path d="m659.79 681.28c0-10.262 9.7422-18.695 21.66-18.695h173.02c11.902 0 21.637 8.4258 21.637 18.695 0 10.285-9.7305 18.707-21.637 18.707h-173.02c-11.918 0-21.66-8.4141-21.66-18.707z"/>
 </g>
</svg>
